<?xml version="1.0" encoding="UTF-8" standalone="no"?>
<!-- Generator: Adobe Illustrator 16.0.0, SVG Export Plug-In . SVG Version: 6.00 Build 0)  -->

<svg
   xmlns:dc="http://purl.org/dc/elements/1.1/"
   xmlns:cc="http://creativecommons.org/ns#"
   xmlns:rdf="http://www.w3.org/1999/02/22-rdf-syntax-ns#"
   xmlns:svg="http://www.w3.org/2000/svg"
   xmlns="http://www.w3.org/2000/svg"
   xmlns:sodipodi="http://sodipodi.sourceforge.net/DTD/sodipodi-0.dtd"
   xmlns:inkscape="http://www.inkscape.org/namespaces/inkscape"
   version="1.1"
   id="Capa_1"
   x="0px"
   y="0px"
   width="439.875px"
   height="439.875px"
   viewBox="0 0 439.875 439.875"
   style="enable-background:new 0 0 439.875 439.875;"
   xml:space="preserve"
   inkscape:version="0.48.4 r9939"
   sodipodi:docname="note42_lime.svg"><metadata
     id="metadata47"><rdf:RDF><cc:Work
         rdf:about=""><dc:format>image/svg+xml</dc:format><dc:type
           rdf:resource="http://purl.org/dc/dcmitype/StillImage" /><dc:title></dc:title></cc:Work></rdf:RDF></metadata><defs
     id="defs45" /><sodipodi:namedview
     pagecolor="#ffffff"
     bordercolor="#666666"
     borderopacity="1"
     objecttolerance="10"
     gridtolerance="10"
     guidetolerance="10"
     inkscape:pageopacity="0"
     inkscape:pageshadow="2"
     inkscape:window-width="1920"
     inkscape:window-height="1134"
     id="namedview43"
     showgrid="false"
     inkscape:zoom="0.53651606"
     inkscape:cx="223.66525"
     inkscape:cy="219.9375"
     inkscape:window-x="0"
     inkscape:window-y="27"
     inkscape:window-maximized="1"
     inkscape:current-layer="Capa_1" /><g
     id="g3"><g
       id="g5"><path
         d="M325.125,325.125v114.75L439.875,306H344.25C334.688,306,325.125,313.65,325.125,325.125z"
         id="path7" /><path
         d="M0,401.625c0,21.037,17.212,38.25,38.25,38.25H306v-114.75c0-21.037,17.213-38.25,38.25-38.25h95.625V114.75H0V401.625z     M210.375,172.125H229.5v114.75h-19.125V172.125z M210.375,344.25H229.5v19.125h-19.125V344.25z"
         id="path9" /><path
         d="M401.625,0H38.25C17.212,0,0,17.212,0,38.25v57.375h439.875V38.25C439.875,17.212,422.662,0,401.625,0z"
         id="path11" /></g></g><g
     id="g13" /><g
     id="g15" /><g
     id="g17" /><g
     id="g19" /><g
     id="g21" /><g
     id="g23" /><g
     id="g25" /><g
     id="g27" /><g
     id="g29" /><g
     id="g31" /><g
     id="g33" /><g
     id="g35" /><g
     id="g37" /><g
     id="g39" /><g
     id="g41" /><path
     style="fill:#ff0000;fill-opacity:1;stroke:#4f4f4f;stroke-width:1.86387718;stroke-opacity:1"
     d="m 326.1785,378.07452 0,-58.1744 5.43596,-6.087 5.43597,-6.08701 49.54841,-0.55286 c 27.25162,-0.30408 49.54841,-0.0705 49.54841,0.51901 0,1.0607 -97.08144,115.03741 -105.56725,123.93932 l -4.4015,4.61733 0,-58.17439 z"
     id="path3024"
     inkscape:connector-curvature="0" /><path
     style="fill:#ff0000;fill-opacity:1;stroke:#4f4f4f;stroke-width:1.86387718;stroke-opacity:1"
     d="M 27.026218,436.88059 C 18.08486,433.75511 9.6106404,426.47561 5.108457,418.05286 l -4.17651844,-7.81351 -0.52990791,-147.71226 -0.5299079,-147.71226 220.00144725,0 220.00143,0 0,85.65882 0,85.65883 -54.82788,0.54549 -54.82789,0.54549 -7.93488,5.59164 c -4.36417,3.07539 -9.88643,9.28822 -12.27169,13.80626 -4.28887,8.12383 -4.33681,8.90157 -4.33681,70.36136 l 0,62.14673 -136.529,-0.14715 C 79.07878,438.88519 30.715014,438.17002 27.026218,436.88059 z m 204.094542,-82.55755 0,-10.25132 -11.18326,0 -11.18326,0 0,10.25132 0,10.25132 11.18326,0 11.18326,0 0,-10.25132 z m 0,-124.87977 0,-58.71213 -11.18326,0 -11.18326,0 0,58.71213 0,58.71213 11.18326,0 11.18326,0 0,-58.71213 z"
     id="path3026"
     inkscape:connector-curvature="0" /><path
     style="fill:#00ff00;fill-opacity:1;stroke:#4f4f4f;stroke-width:1.86387718000000002;stroke-opacity:1"
     d="M 0.35207054,62.160302 C 1.1868003,27.525674 2.912755,20.735018 13.357157,10.99264 24.381203,0.70957942 15.829817,1.1183263 219.9375,1.1183263 c 204.10768,0 195.55629,-0.40874688 206.58034,9.8743137 10.4444,9.742378 12.17035,16.533034 13.00509,51.167662 l 0.77489,32.15188 -220.36032,0 -220.36032257,0 0.77489311,-32.15188 z"
     id="path3028"
     inkscape:connector-curvature="0" /><path
     style="fill:#00ff00;fill-opacity:1;stroke:#4f4f4f;stroke-width:1.86387718;stroke-opacity:1"
     d="m 42.527693,435.5355 c -20.75002,-1.22527 -24.83692,-3.3179 -34.6062152,-17.71947 l -6.0576007,-8.92991 0,-146.1037 0,-146.10371 218.0736229,0 218.07362,0 0,83.87447 0,83.87447 -50.09169,0 c -27.55044,0 -52.89376,0.56041 -56.31849,1.24536 -3.86135,0.77227 -9.53039,4.54894 -14.92317,9.94172 -12.15363,12.15364 -12.8658,16.85282 -12.8658,84.89433 l 0,56.75651 -121.61798,-0.33216 C 115.3041,436.75075 52.454264,436.12165 42.527693,435.5355 l 0,0 z m 190.456947,-81.21246 0,-12.1152 -13.04714,0 -13.04714,0 0,12.1152 0,12.1152 13.04714,0 13.04714,0 0,-12.1152 z m 0,-124.87977 0,-60.576 -13.04714,0 -13.04714,0 0,60.576 0,60.57601 13.04714,0 13.04714,0 0,-60.57601 z"
     id="path3049"
     inkscape:connector-curvature="0" /><path
     style="fill:#ffcc00;fill-opacity:1;stroke:#4f4f4f;stroke-width:1.86387718000000002;stroke-opacity:1"
     d="m 328.11812,375.29166 0.0758,-54.51841 5.2129,-6.09024 5.21291,-6.09024 46.76661,0.49861 46.76662,0.49861 -18.87174,22.36652 c -33.07438,39.19932 -83.71994,97.85355 -84.49258,97.85355 -0.41042,0 -0.71213,-24.53328 -0.67047,-54.5184 z"
     id="path3051"
     inkscape:connector-curvature="0" /><path
     style="fill:#ffcc00;fill-opacity:1;stroke:#4f4f4f;stroke-width:1.86387718;stroke-opacity:1"
     d="m 74.555085,433.62628 c -33.737751,-0.72432 -48.750003,-1.71775 -51.737313,-3.4237 -2.314647,-1.32183 -7.556801,-6.6393 -11.649233,-11.81661 l -7.4407848,-9.41331 0,-145.21503 0,-145.21505 216.2097458,0 216.20975,0 0,81.78599 0,81.78598 -52.65453,0.80177 c -57.21404,0.87121 -58.43822,1.08563 -68.86458,12.06222 -10.9466,11.52429 -11.44366,14.76872 -12.30405,80.31312 l -0.78905,60.11003 -89.72555,-0.3775 c -49.34905,-0.20764 -111.11353,-0.8367 -137.254405,-1.39791 z m 160.293435,-79.30324 0,-13.97908 -14.91102,0 -14.91102,0 0,13.97908 0,13.97908 14.91102,0 14.91102,0 0,-13.97908 z m 0,-124.87977 0,-62.43988 -14.91102,0 -14.91102,0 0,62.43988 0,62.43989 14.91102,0 14.91102,0 0,-62.43989 z"
     id="path3072"
     inkscape:connector-curvature="0" /><path
     style="fill:#ffcc00;fill-opacity:1;stroke:#4f4f4f;stroke-width:1.86387718;stroke-opacity:1"
     d="m 2.4324353,63.09224 c 0.6189081,-16.145835 2.1286373,-32.454512 3.354954,-36.241502 1.2263167,-3.78699 5.3548017,-9.937051 9.1744117,-13.6668 6.689227,-6.5318541 7.621844,-6.8418393 25.347537,-8.4250562 23.970828,-2.1410175 335.285502,-2.1410175 359.256322,0 17.72569,1.5832169 18.65832,1.8932021 25.34753,8.4250562 3.81963,3.729749 7.9481,9.87981 9.17442,13.6668 1.22631,3.78699 2.73606,20.095667 3.35496,36.241502 l 1.12527,29.356065 -218.63034,0 -218.6303518,0 1.1252871,-29.356065 z"
     id="path3074"
     inkscape:connector-curvature="0" /></svg>